<?xml version="1.0" encoding="UTF-8" standalone="no"?>
<svg
   height="24"
   width="24"
   version="1.1"
   id="svg14"
   sodipodi:docname="universal-ctags.02-punctuated.svg"
   inkscape:version="1.1.1 (3bf5ae0d25, 2021-09-20)"
   xmlns:inkscape="http://www.inkscape.org/namespaces/inkscape"
   xmlns:sodipodi="http://sodipodi.sourceforge.net/DTD/sodipodi-0.dtd"
   xmlns="http://www.w3.org/2000/svg"
   xmlns:svg="http://www.w3.org/2000/svg">
  <defs
     id="defs18" />
  <sodipodi:namedview
     id="namedview16"
     pagecolor="#ffffff"
     bordercolor="#666666"
     borderopacity="1.0"
     inkscape:pageshadow="2"
     inkscape:pageopacity="0.0"
     inkscape:pagecheckerboard="0"
     showgrid="false"
     showguides="true"
     inkscape:zoom="25.662084"
     inkscape:cx="12.411307"
     inkscape:cy="9.3328353"
     inkscape:window-width="1918"
     inkscape:window-height="1041"
     inkscape:window-x="1920"
     inkscape:window-y="0"
     inkscape:window-maximized="1"
     inkscape:current-layer="svg14">
    <inkscape:grid
       type="xygrid"
       id="grid165943" />
  </sodipodi:namedview>
  <path
     d="M 2,1 C 0.8954,1 0,1.9 0,3 v 7.1 0.1 c 0.016343,0.5 0.24566,1 0.59375,1.4 l 10.968,10.9 c 0.365,0.4 0.871,0.6 1.438,0.6 0.567,0 1.073,-0.2 1.438,-0.6 l 7.062,-7 c 0.408,-0.4 0.656,-0.9 0.656,-1.5 0,-0.6 -0.248,-1.2 -0.656,-1.5 L 10.59375,1.6 C 10.23875,1.2 9.72695,1 9.18725,1 H 9.15595 1.99975 Z M 5,4 C 6.1046,4 7,4.9 7,6 7,7.1 6.1046,8 5,8 3.8954,8 3,7.1 3,6 3,4.9 3.8954,4 5,4 Z"
     fill="#27ae60"
     id="path2" />
  <path
     d="M 2,0 C 0.8954,0 0,0.89544 0,2 v 7.1562 0.0626 c 0.016343,0.5271 0.24566,1.0272 0.59375,1.3752 l 10.968,10.968 c 0.365,0.38 0.871,0.594 1.438,0.594 0.567,0 1.073,-0.214 1.438,-0.594 l 7.062,-7.062 c 0.408,-0.366 0.656,-0.909 0.656,-1.5 0,-0.591 -0.248,-1.134 -0.656,-1.5 L 10.59375,0.594 C 10.23875,0.23874 9.72695,0.00836 9.18725,0 H 9.15595 1.99975 Z M 5,3 C 6.1046,3 7,3.8954 7,5 7,6.1046 6.1046,7 5,7 3.8954,7 3,6.1046 3,5 3,3.8954 3.8954,3 5,3 Z"
     fill="#2ecc71"
     id="path4" />
  <path
     d="M 13,20 20,13 12,5 5,12 Z"
     fill="#ecf0f1"
     id="path8" />
  <text
     xml:space="preserve"
     style="font-style:normal;font-variant:normal;font-weight:normal;font-stretch:normal;font-size:10.6667px;line-height:1.25;font-family:'Arial Black';-inkscape-font-specification:'Arial Black, ';fill:#b3b3b3"
     x="-4.6244936"
     y="20.443985"
     id="text9626"
     transform="rotate(-44.881212)"><tspan
       id="tspan9624"
       x="-4.6244936"
       y="20.443985"
       style="font-style:normal;font-variant:normal;font-weight:normal;font-stretch:normal;font-family:'Arial Black';-inkscape-font-specification:'Arial Black, '"
       sodipodi:role="line">;&quot;</tspan></text>
  <path
     style="fill:#9ae8bc;stroke:none;stroke-width:1px;stroke-linecap:butt;stroke-linejoin:miter;stroke-opacity:1;fill-opacity:1"
     d="m 5,12 8,8 7,-7 h 0.893785 l -7.88679,7.88679 -8.8915589,-8.891559 z"
     id="path141154" />
  <path
     style="fill:#27ae60;stroke:none;stroke-width:1px;stroke-linecap:butt;stroke-linejoin:miter;stroke-opacity:1;fill-opacity:1"
     d="m 5,12 7,-7 8,8 h 0.893785 L 11.911142,4.017357 4.1154361,11.995231 Z"
     id="path148222" />
</svg>
